<svg xmlns="http://www.w3.org/2000/svg" width="2000" height="973" viewBox="0 0 2000 973"><defs><pattern id="mh" width="16" height="16" patternUnits="userSpaceOnUse" patternTransform="rotate(-52)"><path d="M0 8H16" stroke="#141312" stroke-width="3.5" stroke-opacity="0.55"/></pattern><clipPath id="mc"><path d="M0 650L210 648L236 606L380 610L430 700L560 788L690 790L730 702L860 640L1010 632L1050 560L1180 556L1222 424L1350 414L1392 304L1530 292L1574 196L1690 186L1730 96L1850 84L1892 30L2000 24L2000 973L0 973Z"/></clipPath><linearGradient id="mg" x1="0" y1="0" x2="0" y2="1"><stop offset="0" stop-color="#D8C8AC"/><stop offset="1" stop-color="#A48D6C"/></linearGradient></defs><path d="M0 650L210 648L236 606L380 610L430 700L560 788L690 790L730 702L860 640L1010 632L1050 560L1180 556L1222 424L1350 414L1392 304L1530 292L1574 196L1690 186L1730 96L1850 84L1892 30L2000 24L2000 973L0 973Z" fill="url(#mg)"/><g clip-path="url(#mc)"><path d="M0 120L100 121.8L200 123L300 123.1L400 122L500 119.4L600 115.4L700 110.3L800 104.6L900 98.9L1000 93.5L1100 89.1L1200 86L1300 84.4L1400 84.2L1500 85.1L1600 86.7L1700 88.5L1800 90L1900 90.5L2000 89.9" fill="none" stroke="#141312" stroke-opacity="0.5" stroke-width="5"/><path d="M0 184.4L100 183.8L200 181.8L300 178.3L400 173.7L500 168.2L600 162.3L700 156.8L800 152L900 148.3L1000 146.1L1100 145.3L1200 145.8L1300 147.2L1400 149L1500 150.7L1600 151.6L1700 151.5L1800 150L1900 147L2000 142.7" fill="none" stroke="#141312" stroke-opacity="0.25" stroke-width="3"/><path d="M0 184.4L100 183.8L200 181.8L300 178.3L400 173.7L500 168.2L600 162.3L700 156.8L800 152L900 148.3L1000 146.1L1100 145.3L1200 145.8L1300 147.2L1400 149L1500 150.7L1600 151.6L1700 151.5L1800 150L1900 147L2000 142.7L2000 216L0 216Z" fill="#9F8A6B" fill-opacity=".35"/><path d="M0 241.1L100 236.9L200 231.6L300 225.9L400 220.1L500 215L600 210.8L700 208L800 206.7L900 206.7L1000 207.8L1100 209.5L1200 211.3L1300 212.6L1400 212.9L1500 212L1600 209.6L1700 205.7L1800 200.8L1900 195.2L2000 189.4" fill="none" stroke="#141312" stroke-opacity="0.25" stroke-width="3"/><path d="M0 289.4L100 283.6L200 278.1L300 273.5L400 270.2L500 268.2L600 267.7L700 268.4L800 270L900 271.8L1000 273.3L1100 274.1L1200 273.7L1300 271.9L1400 268.6L1500 264.1L1600 258.7L1700 252.9L1800 247.2L1900 242.3L2000 238.5" fill="none" stroke="#141312" stroke-opacity="0.5" stroke-width="5"/><path d="M0 336.4L100 332.5L200 330L300 329L400 329.2L500 330.5L600 332.2L700 334L800 335.1L900 335.2L1000 334L1100 331.3L1200 327.2L1300 322.1L1400 316.4L1500 310.6L1600 305.3L1700 301L1800 298L1900 296.5L2000 296.3" fill="none" stroke="#141312" stroke-opacity="0.25" stroke-width="3"/><path d="M0 336.4L100 332.5L200 330L300 329L400 329.2L500 330.5L600 332.2L700 334L800 335.1L900 335.2L1000 334L1100 331.3L1200 327.2L1300 322.1L1400 316.4L1500 310.6L1600 305.3L1700 301L1800 298L1900 296.5L2000 296.3L2000 384L0 384Z" fill="#9F8A6B" fill-opacity=".35"/><path d="M0 390.4L100 390.2L200 391.1L300 392.7L400 394.5L500 396L600 396.5L700 395.9L800 393.8L900 390.2L1000 385.5L1100 379.9L1200 374.1L1300 368.6L1400 363.8L1500 360.3L1600 358.1L1700 357.4L1800 358L1900 359.4L2000 361.3" fill="none" stroke="#141312" stroke-opacity="0.25" stroke-width="3"/><path d="M0 453.2L100 455L200 456.7L300 457.6L400 457.5L500 456L600 453L700 448.7L800 443.4L900 437.6L1000 431.9L1100 426.8L1200 422.7L1300 420L1400 418.7L1500 418.8L1600 420L1700 421.7L1800 423.5L1900 424.8L2000 425" fill="none" stroke="#141312" stroke-opacity="0.5" stroke-width="5"/><path d="M0 518.6L100 518.9L200 518L300 515.6L400 511.7L500 506.8L600 501.2L700 495.4L800 489.9L900 485.4L1000 482.1L1100 480.3L1200 479.9L1300 480.6L1400 482.2L1500 484L1600 485.5L1700 486.3L1800 485.8L1900 483.9L2000 480.5" fill="none" stroke="#141312" stroke-opacity="0.25" stroke-width="3"/><path d="M0 518.6L100 518.9L200 518L300 515.6L400 511.7L500 506.8L600 501.2L700 495.4L800 489.9L900 485.4L1000 482.1L1100 480.3L1200 479.9L1300 480.6L1400 482.2L1500 484L1600 485.5L1700 486.3L1800 485.8L1900 483.9L2000 480.5L2000 552L0 552Z" fill="#9F8A6B" fill-opacity=".35"/><path d="M0 577.9L100 574.6L200 570.1L300 564.7L400 558.9L500 553.2L600 548.3L700 544.5L800 542L900 541.1L1000 541.4L1100 542.7L1200 544.5L1300 546.2L1400 547.3L1500 547.3L1600 546L1700 543.2L1800 539.1L1900 533.9L2000 528.2" fill="none" stroke="#141312" stroke-opacity="0.25" stroke-width="3"/><path d="M0 628.1L100 622.4L200 616.6L300 611.3L400 607L500 604L600 602.5L700 602.3L800 603.3L900 605L1000 606.8L1100 608.2L1200 608.7L1300 607.9L1400 605.7L1500 602.1L1600 597.3L1700 591.7L1800 585.9L1900 580.4L2000 575.7" fill="none" stroke="#141312" stroke-opacity="0.5" stroke-width="5"/><path d="M0 674.6L100 669.8L200 666.3L300 664.1L400 663.4L500 664L600 665.4L700 667.3L800 668.9L900 669.8L1000 669.6L1100 668L1200 664.9L1300 660.5L1400 655.2L1500 649.4L1600 643.7L1700 638.6L1800 634.6L1900 632L2000 630.8" fill="none" stroke="#141312" stroke-opacity="0.25" stroke-width="3"/><path d="M0 674.6L100 669.8L200 666.3L300 664.1L400 663.4L500 664L600 665.4L700 667.3L800 668.9L900 669.8L1000 669.6L1100 668L1200 664.9L1300 660.5L1400 655.2L1500 649.4L1600 643.7L1700 638.6L1800 634.6L1900 632L2000 630.8L2000 720L0 720Z" fill="#9F8A6B" fill-opacity=".35"/><path d="M0 726L100 724.7L200 724.8L300 726L400 727.7L500 729.5L600 730.8L700 731L800 730L900 727.5L1000 723.6L1100 718.6L1200 712.9L1300 707.1L1400 701.7L1500 697.3L1600 694.1L1700 692.3L1800 692L1900 692.8L2000 694.4" fill="none" stroke="#141312" stroke-opacity="0.25" stroke-width="3"/><path d="M0 786.6L100 788.2L200 790L300 791.5L400 792.3L500 791.8L600 789.9L700 786.5L800 781.9L900 776.4L1000 770.6L1100 765L1200 760.1L1300 756.4L1400 754.1L1500 753.2L1600 753.6L1700 754.9L1800 756.7L1900 758.4L2000 759.5" fill="none" stroke="#141312" stroke-opacity="0.5" stroke-width="5"/><path d="M0 852.2L100 853.3L200 853.3L300 852L400 849.2L500 845.1L600 839.9L700 834.2L800 828.4L900 823.2L1000 818.9L1100 816L1200 814.6L1300 814.5L1400 815.5L1500 817.2L1600 819L1700 820.4L1800 820.8L1900 819.9L2000 817.6" fill="none" stroke="#141312" stroke-opacity="0.25" stroke-width="3"/><path d="M0 852.2L100 853.3L200 853.3L300 852L400 849.2L500 845.1L600 839.9L700 834.2L800 828.4L900 823.2L1000 818.9L1100 816L1200 814.6L1300 814.5L1400 815.5L1500 817.2L1600 819L1700 820.4L1800 820.8L1900 819.9L2000 817.6L2000 888L0 888Z" fill="#9F8A6B" fill-opacity=".35"/><path d="M0 913.9L100 911.7L200 908.1L300 903.3L400 897.7L500 891.9L600 886.4L700 881.7L800 878.2L900 876.2L1000 875.6L1100 876.2L1200 877.7L1300 879.5L1400 881.1L1500 882L1600 881.6L1700 879.9L1800 876.8L1900 872.3L2000 866.9" fill="none" stroke="#141312" stroke-opacity="0.25" stroke-width="3"/><path d="M0 966.5L100 961.2L200 955.4L300 949.7L400 944.6L500 940.6L600 938L700 936.8L800 937L900 938.2L1000 940L1100 941.7L1200 942.9L1300 943.1L1400 942L1500 939.4L1600 935.4L1700 930.4L1800 924.7L1900 918.9L2000 913.5" fill="none" stroke="#141312" stroke-opacity="0.5" stroke-width="5"/><path d="M210 648L236 606L246 826L210 848Z" fill="url(#mh)"/><path d="M210 648L210 848" stroke="#141312" stroke-width="4" stroke-opacity=".5"/><path d="M380 610L430 700L430 860L390 790Z" fill="#141312" fill-opacity=".14"/><path d="M430 700L560 788L560 948L440 880Z" fill="#141312" fill-opacity=".14"/><path d="M690 790L730 702L740 922L690 990Z" fill="url(#mh)"/><path d="M690 790L690 990" stroke="#141312" stroke-width="4" stroke-opacity=".5"/><path d="M730 702L860 640L870 860L730 902Z" fill="url(#mh)"/><path d="M730 702L730 902" stroke="#141312" stroke-width="4" stroke-opacity=".5"/><path d="M1010 632L1050 560L1060 780L1010 832Z" fill="url(#mh)"/><path d="M1010 632L1010 832" stroke="#141312" stroke-width="4" stroke-opacity=".5"/><path d="M1180 556L1222 424L1232 644L1180 756Z" fill="url(#mh)"/><path d="M1180 556L1180 756" stroke="#141312" stroke-width="4" stroke-opacity=".5"/><path d="M1350 414L1392 304L1402 524L1350 614Z" fill="url(#mh)"/><path d="M1350 414L1350 614" stroke="#141312" stroke-width="4" stroke-opacity=".5"/><path d="M1530 292L1574 196L1584 416L1530 492Z" fill="url(#mh)"/><path d="M1530 292L1530 492" stroke="#141312" stroke-width="4" stroke-opacity=".5"/><path d="M1690 186L1730 96L1740 316L1690 386Z" fill="url(#mh)"/><path d="M1690 186L1690 386" stroke="#141312" stroke-width="4" stroke-opacity=".5"/><path d="M1850 84L1892 30L1902 250L1850 284Z" fill="url(#mh)"/><path d="M1850 84L1850 284" stroke="#141312" stroke-width="4" stroke-opacity=".5"/><ellipse cx="80.9" cy="676" rx="26.8" ry="7" fill="#141312" fill-opacity=".3" stroke="#141312" stroke-opacity=".6" stroke-width="3"/><ellipse cx="616.6" cy="814" rx="30.7" ry="7" fill="#141312" fill-opacity=".3" stroke="#141312" stroke-opacity=".6" stroke-width="3"/><ellipse cx="914" cy="666" rx="38.4" ry="7" fill="#141312" fill-opacity=".3" stroke="#141312" stroke-opacity=".6" stroke-width="3"/><ellipse cx="1110.9" cy="586" rx="31.6" ry="7" fill="#141312" fill-opacity=".3" stroke="#141312" stroke-opacity=".6" stroke-width="3"/><ellipse cx="1297.3" cy="450" rx="44.9" ry="7" fill="#141312" fill-opacity=".3" stroke="#141312" stroke-opacity=".6" stroke-width="3"/><ellipse cx="1618" cy="222" rx="35" ry="7" fill="#141312" fill-opacity=".3" stroke="#141312" stroke-opacity=".6" stroke-width="3"/><ellipse cx="1934.3" cy="56" rx="32.4" ry="7" fill="#141312" fill-opacity=".3" stroke="#141312" stroke-opacity=".6" stroke-width="3"/><circle cx="612" cy="283.3" r="4.7" fill="#141312" fill-opacity="0.3"/><circle cx="1009.7" cy="924.5" r="4.8" fill="#141312" fill-opacity="0.3"/><circle cx="1971.9" cy="548.4" r="2" fill="#141312" fill-opacity="0.2"/><circle cx="156.5" cy="247.2" r="2.4" fill="#141312" fill-opacity="0.2"/><circle cx="1973.3" cy="960" r="3.2" fill="#141312" fill-opacity="0.3"/><circle cx="1756.1" cy="755.7" r="2.2" fill="#141312" fill-opacity="0.2"/><circle cx="419.7" cy="719.8" r="2.8" fill="#141312" fill-opacity="0.2"/><circle cx="1752.2" cy="963.2" r="5" fill="#141312" fill-opacity="0.3"/><circle cx="1050.3" cy="157.8" r="2.2" fill="#141312" fill-opacity="0.2"/><circle cx="238.7" cy="430" r="2.8" fill="#141312" fill-opacity="0.3"/><circle cx="401.2" cy="729.3" r="4.1" fill="#141312" fill-opacity="0.3"/><circle cx="1596.3" cy="83.1" r="2.3" fill="#141312" fill-opacity="0.2"/><circle cx="956.6" cy="589.3" r="2" fill="#141312" fill-opacity="0.2"/><circle cx="480.9" cy="516.4" r="5.1" fill="#141312" fill-opacity="0.3"/><circle cx="709" cy="557.2" r="4.3" fill="#141312" fill-opacity="0.3"/><circle cx="1199.1" cy="953.8" r="3.1" fill="#141312" fill-opacity="0.2"/><circle cx="1697" cy="527.1" r="2.5" fill="#141312" fill-opacity="0.2"/><circle cx="1081" cy="481.7" r="3.2" fill="#141312" fill-opacity="0.2"/><circle cx="1018.2" cy="753" r="2.8" fill="#141312" fill-opacity="0.3"/><circle cx="691.2" cy="641.6" r="5" fill="#141312" fill-opacity="0.3"/><circle cx="1428" cy="480.9" r="4.8" fill="#141312" fill-opacity="0.3"/><circle cx="970.7" cy="136.6" r="5.2" fill="#141312" fill-opacity="0.2"/><circle cx="999.9" cy="776.3" r="4.2" fill="#141312" fill-opacity="0.2"/><circle cx="471.5" cy="147.2" r="4" fill="#141312" fill-opacity="0.2"/><circle cx="1210.4" cy="824.5" r="4.6" fill="#141312" fill-opacity="0.3"/><circle cx="1204.9" cy="398.1" r="3.2" fill="#141312" fill-opacity="0.2"/><circle cx="1966.4" cy="451.9" r="3.7" fill="#141312" fill-opacity="0.3"/><circle cx="282.9" cy="56" r="4.3" fill="#141312" fill-opacity="0.3"/><circle cx="1263.6" cy="450.4" r="2.1" fill="#141312" fill-opacity="0.3"/><circle cx="925.3" cy="145.3" r="4.5" fill="#141312" fill-opacity="0.2"/><circle cx="575.2" cy="74.4" r="2.2" fill="#141312" fill-opacity="0.3"/><circle cx="105.8" cy="183.6" r="3.9" fill="#141312" fill-opacity="0.2"/><circle cx="1676.8" cy="771.6" r="3.3" fill="#141312" fill-opacity="0.3"/><circle cx="1335" cy="472.5" r="2.5" fill="#141312" fill-opacity="0.3"/><circle cx="88.8" cy="840" r="4.3" fill="#141312" fill-opacity="0.3"/><circle cx="843.5" cy="448.9" r="5.3" fill="#141312" fill-opacity="0.3"/><circle cx="863.7" cy="867.1" r="4.6" fill="#141312" fill-opacity="0.3"/><circle cx="392.7" cy="694.9" r="4.6" fill="#141312" fill-opacity="0.2"/><circle cx="858.7" cy="666.4" r="2.4" fill="#141312" fill-opacity="0.3"/><circle cx="258" cy="119.3" r="4.7" fill="#141312" fill-opacity="0.3"/><circle cx="757.3" cy="67.2" r="2.7" fill="#141312" fill-opacity="0.2"/><circle cx="662.8" cy="938.7" r="2.3" fill="#141312" fill-opacity="0.3"/><circle cx="1827.3" cy="488" r="3.3" fill="#141312" fill-opacity="0.3"/><circle cx="1467.6" cy="761.1" r="4.8" fill="#141312" fill-opacity="0.2"/><circle cx="856.5" cy="70.4" r="3.2" fill="#141312" fill-opacity="0.3"/><circle cx="1730.6" cy="692.7" r="4.4" fill="#141312" fill-opacity="0.3"/><circle cx="208.5" cy="674.8" r="2.6" fill="#141312" fill-opacity="0.2"/><circle cx="881.7" cy="957.6" r="5.2" fill="#141312" fill-opacity="0.2"/><circle cx="975.6" cy="474.4" r="2.6" fill="#141312" fill-opacity="0.2"/><circle cx="864.2" cy="770.9" r="2.6" fill="#141312" fill-opacity="0.3"/><circle cx="1935.3" cy="937.6" r="2.8" fill="#141312" fill-opacity="0.2"/><circle cx="1579.2" cy="601" r="4.5" fill="#141312" fill-opacity="0.2"/><circle cx="684.2" cy="498.5" r="3.1" fill="#141312" fill-opacity="0.3"/><circle cx="112.3" cy="254.6" r="4.8" fill="#141312" fill-opacity="0.3"/><circle cx="1364.7" cy="417.1" r="4.9" fill="#141312" fill-opacity="0.2"/><circle cx="888.6" cy="615.3" r="3.9" fill="#141312" fill-opacity="0.3"/><circle cx="1674" cy="315" r="4" fill="#141312" fill-opacity="0.3"/><circle cx="828.8" cy="176.3" r="3.6" fill="#141312" fill-opacity="0.2"/><circle cx="234.4" cy="353.7" r="2.1" fill="#141312" fill-opacity="0.3"/><circle cx="1340.4" cy="325.1" r="4.9" fill="#141312" fill-opacity="0.3"/><circle cx="655.5" cy="868.5" r="2.6" fill="#141312" fill-opacity="0.3"/><circle cx="367" cy="218.4" r="5.2" fill="#141312" fill-opacity="0.3"/><circle cx="234.3" cy="946.3" r="3.7" fill="#141312" fill-opacity="0.2"/><circle cx="1335.1" cy="313.9" r="3.7" fill="#141312" fill-opacity="0.3"/><circle cx="1791.2" cy="195.6" r="3" fill="#141312" fill-opacity="0.3"/><circle cx="153" cy="543.7" r="2.7" fill="#141312" fill-opacity="0.3"/><circle cx="1331" cy="432.2" r="3.1" fill="#141312" fill-opacity="0.2"/><circle cx="568.7" cy="251.5" r="3.6" fill="#141312" fill-opacity="0.3"/><circle cx="274.1" cy="826.7" r="3.7" fill="#141312" fill-opacity="0.3"/><circle cx="997.1" cy="899.3" r="3" fill="#141312" fill-opacity="0.3"/><circle cx="655" cy="689.4" r="5.1" fill="#141312" fill-opacity="0.2"/><circle cx="775.6" cy="674.1" r="2.1" fill="#141312" fill-opacity="0.2"/><circle cx="588.5" cy="464.7" r="3.9" fill="#141312" fill-opacity="0.2"/><circle cx="520.2" cy="969.6" r="4.5" fill="#141312" fill-opacity="0.3"/><circle cx="1958" cy="513.2" r="4.1" fill="#141312" fill-opacity="0.2"/><circle cx="1344.5" cy="171.5" r="2.8" fill="#141312" fill-opacity="0.2"/><circle cx="688.7" cy="150" r="4.6" fill="#141312" fill-opacity="0.2"/><circle cx="178.8" cy="608.6" r="4.1" fill="#141312" fill-opacity="0.2"/><circle cx="600.3" cy="525" r="4.7" fill="#141312" fill-opacity="0.3"/><circle cx="304.4" cy="520.3" r="2.2" fill="#141312" fill-opacity="0.3"/><circle cx="625.2" cy="968" r="2.3" fill="#141312" fill-opacity="0.2"/><circle cx="1902.1" cy="289.8" r="4.7" fill="#141312" fill-opacity="0.2"/><circle cx="900.1" cy="447.2" r="2.4" fill="#141312" fill-opacity="0.3"/><circle cx="657.1" cy="478.8" r="2.1" fill="#141312" fill-opacity="0.2"/><circle cx="1746" cy="588" r="3.2" fill="#141312" fill-opacity="0.3"/><circle cx="1880" cy="115.8" r="4.8" fill="#141312" fill-opacity="0.3"/><circle cx="291.8" cy="423.3" r="4.4" fill="#141312" fill-opacity="0.2"/><circle cx="1893" cy="934.1" r="3.9" fill="#141312" fill-opacity="0.3"/><circle cx="1416.4" cy="611.7" r="3.6" fill="#141312" fill-opacity="0.2"/><circle cx="708.3" cy="276.2" r="2.2" fill="#141312" fill-opacity="0.3"/><circle cx="1499.5" cy="361.9" r="2.7" fill="#141312" fill-opacity="0.2"/><circle cx="1283.4" cy="553.7" r="5.3" fill="#141312" fill-opacity="0.2"/><circle cx="1672.8" cy="632" r="3.8" fill="#141312" fill-opacity="0.2"/><circle cx="1099.6" cy="836.6" r="3.9" fill="#141312" fill-opacity="0.2"/><circle cx="1775.7" cy="971.5" r="3" fill="#141312" fill-opacity="0.2"/><circle cx="614.5" cy="647.3" r="2.5" fill="#141312" fill-opacity="0.3"/><circle cx="748.3" cy="467.3" r="3.9" fill="#141312" fill-opacity="0.3"/><circle cx="1348.7" cy="693" r="3.5" fill="#141312" fill-opacity="0.2"/><circle cx="1299.6" cy="849.1" r="2.9" fill="#141312" fill-opacity="0.3"/><circle cx="1707.5" cy="86.6" r="2.5" fill="#141312" fill-opacity="0.3"/><circle cx="148.2" cy="625.3" r="2.3" fill="#141312" fill-opacity="0.2"/><circle cx="79.2" cy="555.2" r="2.1" fill="#141312" fill-opacity="0.2"/><circle cx="564.1" cy="568.8" r="4.9" fill="#141312" fill-opacity="0.2"/><circle cx="806.5" cy="206.3" r="3.9" fill="#141312" fill-opacity="0.3"/><circle cx="103.8" cy="452.4" r="2" fill="#141312" fill-opacity="0.2"/><circle cx="304.7" cy="391.3" r="3.1" fill="#141312" fill-opacity="0.2"/><circle cx="895.8" cy="76.1" r="4.1" fill="#141312" fill-opacity="0.3"/><circle cx="365" cy="723.1" r="4.1" fill="#141312" fill-opacity="0.2"/><circle cx="1801.9" cy="640.5" r="2.5" fill="#141312" fill-opacity="0.2"/><circle cx="709.3" cy="236" r="3" fill="#141312" fill-opacity="0.2"/><circle cx="5" cy="725" r="5.2" fill="#141312" fill-opacity="0.2"/><circle cx="227.4" cy="529.2" r="3.6" fill="#141312" fill-opacity="0.3"/><circle cx="207" cy="153.7" r="2.5" fill="#141312" fill-opacity="0.3"/><circle cx="231.3" cy="682.5" r="4.3" fill="#141312" fill-opacity="0.2"/><circle cx="50.7" cy="623.2" r="4.8" fill="#141312" fill-opacity="0.2"/><circle cx="59.4" cy="192.8" r="2" fill="#141312" fill-opacity="0.3"/><circle cx="1057.5" cy="582.6" r="4" fill="#141312" fill-opacity="0.3"/><circle cx="1203.9" cy="474.4" r="4.3" fill="#141312" fill-opacity="0.3"/><circle cx="1324" cy="49.8" r="2.3" fill="#141312" fill-opacity="0.3"/><circle cx="1523.5" cy="583.7" r="5" fill="#141312" fill-opacity="0.2"/><circle cx="1295.3" cy="475" r="4.6" fill="#141312" fill-opacity="0.2"/><circle cx="1569.1" cy="766.5" r="2.3" fill="#141312" fill-opacity="0.3"/><circle cx="1945.6" cy="339.4" r="2.1" fill="#141312" fill-opacity="0.3"/><circle cx="687.6" cy="202.1" r="2.3" fill="#141312" fill-opacity="0.3"/><circle cx="87" cy="786.4" r="2.7" fill="#141312" fill-opacity="0.2"/><circle cx="2" cy="782" r="3.3" fill="#141312" fill-opacity="0.3"/><circle cx="285.4" cy="582.1" r="3.3" fill="#141312" fill-opacity="0.3"/><circle cx="1016.5" cy="80.8" r="4.9" fill="#141312" fill-opacity="0.2"/><circle cx="233.6" cy="902.9" r="2.6" fill="#141312" fill-opacity="0.3"/><circle cx="1068" cy="40.7" r="2.9" fill="#141312" fill-opacity="0.3"/><circle cx="1582.2" cy="867.3" r="4" fill="#141312" fill-opacity="0.2"/><circle cx="234.1" cy="548" r="3.5" fill="#141312" fill-opacity="0.3"/><circle cx="1916.8" cy="244.4" r="5.4" fill="#141312" fill-opacity="0.2"/><circle cx="1897.1" cy="769.6" r="4.6" fill="#141312" fill-opacity="0.3"/><circle cx="779.4" cy="695" r="5.4" fill="#141312" fill-opacity="0.3"/><circle cx="959.2" cy="357.8" r="2.4" fill="#141312" fill-opacity="0.3"/><circle cx="1100.3" cy="841.8" r="2.2" fill="#141312" fill-opacity="0.2"/><circle cx="971.6" cy="310.8" r="4.9" fill="#141312" fill-opacity="0.2"/><circle cx="339.9" cy="150.6" r="2.2" fill="#141312" fill-opacity="0.3"/><circle cx="1520.2" cy="136.8" r="2.4" fill="#141312" fill-opacity="0.3"/><circle cx="1277.5" cy="378.2" r="2.3" fill="#141312" fill-opacity="0.3"/><circle cx="1833.2" cy="41.5" r="3.2" fill="#141312" fill-opacity="0.3"/><circle cx="674.9" cy="652.9" r="3.2" fill="#141312" fill-opacity="0.2"/><circle cx="887.4" cy="628.9" r="4.3" fill="#141312" fill-opacity="0.3"/><circle cx="526.3" cy="707.6" r="2.3" fill="#141312" fill-opacity="0.3"/><circle cx="1664.4" cy="79.6" r="2.9" fill="#141312" fill-opacity="0.3"/><circle cx="1231" cy="247.5" r="2.6" fill="#141312" fill-opacity="0.3"/><circle cx="37.3" cy="241.9" r="4.9" fill="#141312" fill-opacity="0.3"/><circle cx="668.7" cy="493" r="3.7" fill="#141312" fill-opacity="0.3"/><circle cx="1449.4" cy="385.7" r="4.7" fill="#141312" fill-opacity="0.2"/><circle cx="1257.1" cy="115.7" r="2.5" fill="#141312" fill-opacity="0.2"/><circle cx="1035.6" cy="612.4" r="2.9" fill="#141312" fill-opacity="0.2"/><circle cx="1323.3" cy="219.7" r="2.4" fill="#141312" fill-opacity="0.2"/><circle cx="824.6" cy="501" r="4.1" fill="#141312" fill-opacity="0.3"/><circle cx="590.5" cy="823.2" r="4.6" fill="#141312" fill-opacity="0.2"/><circle cx="461.1" cy="240.5" r="3.7" fill="#141312" fill-opacity="0.3"/><circle cx="509.5" cy="305.4" r="4.2" fill="#141312" fill-opacity="0.3"/><circle cx="1493.9" cy="299.9" r="5.4" fill="#141312" fill-opacity="0.3"/><circle cx="521.6" cy="680" r="2.2" fill="#141312" fill-opacity="0.3"/><circle cx="850.9" cy="364.3" r="5.1" fill="#141312" fill-opacity="0.2"/><circle cx="1922.8" cy="205.4" r="5.2" fill="#141312" fill-opacity="0.2"/><circle cx="1175.3" cy="438.1" r="2.7" fill="#141312" fill-opacity="0.2"/><circle cx="1403.1" cy="65.6" r="5.2" fill="#141312" fill-opacity="0.3"/><circle cx="1003.1" cy="468.2" r="3.4" fill="#141312" fill-opacity="0.2"/><circle cx="1581.3" cy="748.3" r="4.6" fill="#141312" fill-opacity="0.2"/><circle cx="1924" cy="246.5" r="2.3" fill="#141312" fill-opacity="0.3"/><circle cx="500.5" cy="786.5" r="2.4" fill="#141312" fill-opacity="0.2"/><circle cx="574.7" cy="84.9" r="2.4" fill="#141312" fill-opacity="0.3"/><circle cx="203.8" cy="278.4" r="4.1" fill="#141312" fill-opacity="0.3"/><circle cx="1246.5" cy="97.9" r="2.6" fill="#141312" fill-opacity="0.3"/><circle cx="209.5" cy="648.6" r="3.3" fill="#141312" fill-opacity="0.2"/><circle cx="1472.4" cy="245.5" r="4.8" fill="#141312" fill-opacity="0.2"/><circle cx="1011.6" cy="99.1" r="3.5" fill="#141312" fill-opacity="0.3"/><circle cx="1426.2" cy="650.6" r="4.8" fill="#141312" fill-opacity="0.2"/><circle cx="607.2" cy="626.5" r="2.1" fill="#141312" fill-opacity="0.3"/><circle cx="498.9" cy="850.4" r="3" fill="#141312" fill-opacity="0.3"/><circle cx="149.3" cy="93.8" r="3.3" fill="#141312" fill-opacity="0.3"/><circle cx="948.1" cy="223" r="3.8" fill="#141312" fill-opacity="0.2"/><circle cx="577.7" cy="748" r="3.8" fill="#141312" fill-opacity="0.3"/><circle cx="601.4" cy="47.3" r="3.6" fill="#141312" fill-opacity="0.3"/><circle cx="128.7" cy="486.1" r="4.4" fill="#141312" fill-opacity="0.2"/><circle cx="129.3" cy="306.5" r="5.1" fill="#141312" fill-opacity="0.2"/><circle cx="162.2" cy="466.5" r="2.6" fill="#141312" fill-opacity="0.2"/><circle cx="136.8" cy="787.7" r="3.3" fill="#141312" fill-opacity="0.3"/><circle cx="1849" cy="789.4" r="2.1" fill="#141312" fill-opacity="0.3"/><circle cx="1564.9" cy="749.2" r="2.2" fill="#141312" fill-opacity="0.2"/><circle cx="614.4" cy="883.6" r="2.8" fill="#141312" fill-opacity="0.2"/><circle cx="1849.6" cy="587.2" r="4.1" fill="#141312" fill-opacity="0.2"/><circle cx="323.8" cy="424.9" r="3.1" fill="#141312" fill-opacity="0.3"/><circle cx="1335.1" cy="258" r="3.8" fill="#141312" fill-opacity="0.3"/><circle cx="548.6" cy="783.3" r="2.2" fill="#141312" fill-opacity="0.2"/><circle cx="767" cy="339.4" r="3" fill="#141312" fill-opacity="0.2"/><circle cx="1944.7" cy="116.8" r="2.2" fill="#141312" fill-opacity="0.3"/><circle cx="1104" cy="555.3" r="4.4" fill="#141312" fill-opacity="0.3"/><circle cx="447.2" cy="337.7" r="2.5" fill="#141312" fill-opacity="0.2"/><circle cx="1288" cy="222.3" r="5.4" fill="#141312" fill-opacity="0.2"/><circle cx="538.7" cy="877" r="2.2" fill="#141312" fill-opacity="0.3"/><circle cx="1098" cy="972.7" r="2.5" fill="#141312" fill-opacity="0.3"/><circle cx="1390.3" cy="95" r="4.6" fill="#141312" fill-opacity="0.2"/><circle cx="655.3" cy="335.5" r="5.4" fill="#141312" fill-opacity="0.2"/><circle cx="979.8" cy="786.4" r="2.6" fill="#141312" fill-opacity="0.3"/><circle cx="192.4" cy="70" r="2.9" fill="#141312" fill-opacity="0.2"/><circle cx="1030.7" cy="486.8" r="3.8" fill="#141312" fill-opacity="0.3"/><circle cx="600.2" cy="676.2" r="3.5" fill="#141312" fill-opacity="0.2"/><circle cx="899.4" cy="652.7" r="4.1" fill="#141312" fill-opacity="0.2"/><circle cx="1670.7" cy="190.3" r="3.3" fill="#141312" fill-opacity="0.2"/><circle cx="261.6" cy="245.1" r="5.2" fill="#141312" fill-opacity="0.3"/><circle cx="1836.1" cy="99.2" r="2.3" fill="#141312" fill-opacity="0.3"/><circle cx="590.8" cy="156.2" r="5.4" fill="#141312" fill-opacity="0.2"/><circle cx="230.8" cy="922.7" r="5.4" fill="#141312" fill-opacity="0.3"/><circle cx="137.9" cy="836.4" r="5.4" fill="#141312" fill-opacity="0.3"/><circle cx="108.7" cy="377.9" r="5.1" fill="#141312" fill-opacity="0.3"/><circle cx="89.9" cy="301.9" r="4.8" fill="#141312" fill-opacity="0.3"/><circle cx="1653.2" cy="430.9" r="2.2" fill="#141312" fill-opacity="0.2"/><circle cx="1.6" cy="501.7" r="4.1" fill="#141312" fill-opacity="0.2"/><circle cx="64.1" cy="225.1" r="3.9" fill="#141312" fill-opacity="0.2"/><circle cx="389.5" cy="948.3" r="2.2" fill="#141312" fill-opacity="0.2"/><circle cx="1672.3" cy="461.2" r="4.4" fill="#141312" fill-opacity="0.2"/><circle cx="1772.3" cy="793.8" r="5.1" fill="#141312" fill-opacity="0.3"/><circle cx="1759.5" cy="689.2" r="3.9" fill="#141312" fill-opacity="0.2"/><circle cx="1222.8" cy="285.3" r="5.5" fill="#141312" fill-opacity="0.2"/><circle cx="1780.9" cy="408.1" r="4.3" fill="#141312" fill-opacity="0.3"/><circle cx="1681" cy="122.7" r="4.7" fill="#141312" fill-opacity="0.3"/><circle cx="1310.1" cy="930.4" r="2.4" fill="#141312" fill-opacity="0.3"/><circle cx="1802.4" cy="267" r="4.1" fill="#141312" fill-opacity="0.3"/><circle cx="1498.2" cy="855.1" r="4.5" fill="#141312" fill-opacity="0.2"/><circle cx="1580.5" cy="663.1" r="2.5" fill="#141312" fill-opacity="0.2"/><circle cx="216.2" cy="33.9" r="4.1" fill="#141312" fill-opacity="0.3"/><circle cx="411" cy="105" r="3.1" fill="#141312" fill-opacity="0.2"/><circle cx="489.9" cy="96.8" r="5.4" fill="#141312" fill-opacity="0.2"/><circle cx="1063.4" cy="774.9" r="2.8" fill="#141312" fill-opacity="0.3"/><circle cx="163.4" cy="731.7" r="4.7" fill="#141312" fill-opacity="0.2"/><circle cx="1513.7" cy="878.6" r="3.6" fill="#141312" fill-opacity="0.2"/><circle cx="1215.4" cy="158.2" r="4.6" fill="#141312" fill-opacity="0.3"/><circle cx="601" cy="161.5" r="3.7" fill="#141312" fill-opacity="0.2"/><circle cx="1432.6" cy="930.1" r="4.4" fill="#141312" fill-opacity="0.3"/><circle cx="604.1" cy="531.9" r="3.7" fill="#141312" fill-opacity="0.2"/><circle cx="1076.6" cy="245.3" r="2.5" fill="#141312" fill-opacity="0.2"/><circle cx="1498.2" cy="832.4" r="5" fill="#141312" fill-opacity="0.2"/><circle cx="182.6" cy="186.8" r="2.4" fill="#141312" fill-opacity="0.3"/><circle cx="909.5" cy="535" r="2.5" fill="#141312" fill-opacity="0.2"/><circle cx="1017.4" cy="643.7" r="3.2" fill="#141312" fill-opacity="0.3"/><circle cx="572.3" cy="820.2" r="4.6" fill="#141312" fill-opacity="0.3"/><circle cx="847.4" cy="809.8" r="5.1" fill="#141312" fill-opacity="0.3"/><circle cx="463.9" cy="35.9" r="5.3" fill="#141312" fill-opacity="0.3"/><circle cx="1914.4" cy="763.7" r="3.7" fill="#141312" fill-opacity="0.2"/><circle cx="11.2" cy="631.5" r="3.5" fill="#141312" fill-opacity="0.3"/><circle cx="748.8" cy="858.5" r="2" fill="#141312" fill-opacity="0.2"/><circle cx="430.5" cy="488.7" r="3.4" fill="#141312" fill-opacity="0.3"/><circle cx="1746.9" cy="583.2" r="3.2" fill="#141312" fill-opacity="0.3"/><circle cx="761.8" cy="505.9" r="2.4" fill="#141312" fill-opacity="0.2"/><circle cx="1122.5" cy="87.6" r="2.4" fill="#141312" fill-opacity="0.3"/><circle cx="259.3" cy="38.4" r="2.8" fill="#141312" fill-opacity="0.2"/><circle cx="1899" cy="198.4" r="5.1" fill="#141312" fill-opacity="0.3"/><circle cx="502.4" cy="286.5" r="3.9" fill="#141312" fill-opacity="0.3"/><circle cx="1947.9" cy="237.8" r="4.5" fill="#141312" fill-opacity="0.2"/><circle cx="78.6" cy="908.9" r="4.4" fill="#141312" fill-opacity="0.2"/><circle cx="1552.8" cy="811.1" r="2.3" fill="#141312" fill-opacity="0.2"/><circle cx="531.4" cy="70.3" r="4.2" fill="#141312" fill-opacity="0.3"/><circle cx="370.5" cy="335.4" r="2.2" fill="#141312" fill-opacity="0.3"/><circle cx="1426.4" cy="678" r="3.3" fill="#141312" fill-opacity="0.2"/><circle cx="108.6" cy="340" r="4.9" fill="#141312" fill-opacity="0.2"/><circle cx="300.3" cy="715.1" r="3.5" fill="#141312" fill-opacity="0.2"/><circle cx="1548.4" cy="819.2" r="4.4" fill="#141312" fill-opacity="0.2"/><circle cx="1882" cy="720.6" r="3.7" fill="#141312" fill-opacity="0.2"/><circle cx="329" cy="507.3" r="2.8" fill="#141312" fill-opacity="0.2"/><circle cx="371.8" cy="584.5" r="3.8" fill="#141312" fill-opacity="0.3"/><circle cx="1295.5" cy="805.2" r="4.3" fill="#141312" fill-opacity="0.3"/><circle cx="1204.6" cy="641.3" r="5" fill="#141312" fill-opacity="0.3"/><circle cx="1880.4" cy="585.5" r="4.8" fill="#141312" fill-opacity="0.2"/><circle cx="1728" cy="338.3" r="2.7" fill="#141312" fill-opacity="0.2"/><circle cx="1937.2" cy="218.7" r="4" fill="#141312" fill-opacity="0.3"/><circle cx="86.9" cy="918.9" r="5.3" fill="#141312" fill-opacity="0.3"/><circle cx="1451.3" cy="75.7" r="4.3" fill="#141312" fill-opacity="0.2"/><circle cx="1535.1" cy="448.6" r="3.2" fill="#141312" fill-opacity="0.3"/><circle cx="280.3" cy="371.9" r="2.1" fill="#141312" fill-opacity="0.3"/><circle cx="455.1" cy="38.6" r="4.1" fill="#141312" fill-opacity="0.2"/><circle cx="706.3" cy="532.2" r="2.6" fill="#141312" fill-opacity="0.3"/><circle cx="1005.3" cy="655.3" r="4.3" fill="#141312" fill-opacity="0.2"/><circle cx="1734.6" cy="238.7" r="2.5" fill="#141312" fill-opacity="0.2"/><circle cx="868.9" cy="58" r="2.9" fill="#141312" fill-opacity="0.2"/><circle cx="65.5" cy="96" r="3" fill="#141312" fill-opacity="0.3"/><circle cx="313.6" cy="198.3" r="4.4" fill="#141312" fill-opacity="0.3"/><circle cx="957" cy="858.6" r="2.4" fill="#141312" fill-opacity="0.2"/><circle cx="657.2" cy="446" r="2.3" fill="#141312" fill-opacity="0.3"/><circle cx="698.6" cy="135.8" r="2.4" fill="#141312" fill-opacity="0.2"/><circle cx="1737.7" cy="275.9" r="4.2" fill="#141312" fill-opacity="0.3"/><circle cx="1726" cy="338.8" r="4.5" fill="#141312" fill-opacity="0.3"/><circle cx="1747.5" cy="470.7" r="3.2" fill="#141312" fill-opacity="0.2"/><circle cx="1075.1" cy="750.1" r="5" fill="#141312" fill-opacity="0.3"/><circle cx="617.9" cy="421.4" r="5.2" fill="#141312" fill-opacity="0.2"/><circle cx="1185.2" cy="674.4" r="3.1" fill="#141312" fill-opacity="0.2"/><circle cx="1313.4" cy="604.6" r="4.1" fill="#141312" fill-opacity="0.3"/><circle cx="44.5" cy="334" r="2.5" fill="#141312" fill-opacity="0.2"/><circle cx="810.9" cy="614.3" r="4.4" fill="#141312" fill-opacity="0.3"/><circle cx="81.7" cy="422.4" r="2.8" fill="#141312" fill-opacity="0.2"/><circle cx="1253.8" cy="414.7" r="2.2" fill="#141312" fill-opacity="0.2"/><circle cx="1457.7" cy="433.7" r="4.6" fill="#141312" fill-opacity="0.2"/><circle cx="1660.1" cy="499.9" r="3.8" fill="#141312" fill-opacity="0.3"/><circle cx="493.5" cy="568.3" r="3.1" fill="#141312" fill-opacity="0.2"/><circle cx="969" cy="82.1" r="3.7" fill="#141312" fill-opacity="0.2"/><circle cx="1973.7" cy="38.9" r="4.8" fill="#141312" fill-opacity="0.2"/><circle cx="853.5" cy="529.3" r="5.4" fill="#141312" fill-opacity="0.3"/><circle cx="1702.1" cy="843.3" r="5.1" fill="#141312" fill-opacity="0.3"/><circle cx="385.7" cy="94.9" r="4.5" fill="#141312" fill-opacity="0.2"/><circle cx="1145.7" cy="768.3" r="2.8" fill="#141312" fill-opacity="0.3"/><circle cx="1521.7" cy="640.6" r="3.3" fill="#141312" fill-opacity="0.2"/><circle cx="144.4" cy="543.6" r="2.8" fill="#141312" fill-opacity="0.3"/><circle cx="988.7" cy="695.1" r="3.8" fill="#141312" fill-opacity="0.2"/><circle cx="987.7" cy="339.1" r="3.1" fill="#141312" fill-opacity="0.3"/><circle cx="859.4" cy="680.4" r="3.5" fill="#141312" fill-opacity="0.3"/><circle cx="1030.2" cy="910.1" r="2.4" fill="#141312" fill-opacity="0.3"/><circle cx="1386.6" cy="713" r="4.7" fill="#141312" fill-opacity="0.2"/><circle cx="104" cy="823.3" r="2.1" fill="#141312" fill-opacity="0.3"/><circle cx="1619.9" cy="548.5" r="4" fill="#141312" fill-opacity="0.3"/><circle cx="112.1" cy="183.3" r="3.9" fill="#141312" fill-opacity="0.3"/><circle cx="167.4" cy="160.6" r="3.4" fill="#141312" fill-opacity="0.2"/><circle cx="586.3" cy="54.8" r="2.9" fill="#141312" fill-opacity="0.2"/><circle cx="884" cy="646.2" r="5.3" fill="#141312" fill-opacity="0.2"/><circle cx="1774.8" cy="891.6" r="3.1" fill="#141312" fill-opacity="0.3"/><circle cx="597.4" cy="307.1" r="4.3" fill="#141312" fill-opacity="0.2"/><circle cx="240.4" cy="295.1" r="3.5" fill="#141312" fill-opacity="0.3"/><circle cx="1462.7" cy="75" r="5" fill="#141312" fill-opacity="0.2"/><circle cx="1497.9" cy="415.7" r="3.2" fill="#141312" fill-opacity="0.2"/><circle cx="1097.1" cy="602.2" r="3.6" fill="#141312" fill-opacity="0.3"/><circle cx="969.9" cy="628.8" r="4.9" fill="#141312" fill-opacity="0.3"/><circle cx="1222.4" cy="341.8" r="4.2" fill="#141312" fill-opacity="0.2"/><circle cx="1767.7" cy="735.5" r="2.1" fill="#141312" fill-opacity="0.2"/><circle cx="773.2" cy="421.7" r="2.2" fill="#141312" fill-opacity="0.3"/><circle cx="644.7" cy="483.4" r="5.4" fill="#141312" fill-opacity="0.2"/><circle cx="1399.7" cy="695.3" r="3.8" fill="#141312" fill-opacity="0.3"/><circle cx="1334.1" cy="350.1" r="3.8" fill="#141312" fill-opacity="0.2"/><circle cx="1460.9" cy="568.9" r="2.2" fill="#141312" fill-opacity="0.3"/><circle cx="468" cy="642.3" r="5.4" fill="#141312" fill-opacity="0.2"/><circle cx="1886.4" cy="75.8" r="4.8" fill="#141312" fill-opacity="0.3"/><circle cx="1369.2" cy="532.4" r="3.7" fill="#141312" fill-opacity="0.2"/><circle cx="583.2" cy="431.1" r="3.8" fill="#141312" fill-opacity="0.2"/><circle cx="1326.5" cy="124.3" r="3.9" fill="#141312" fill-opacity="0.3"/><circle cx="1133.7" cy="565.1" r="4.3" fill="#141312" fill-opacity="0.2"/><circle cx="953.6" cy="306.5" r="4.1" fill="#141312" fill-opacity="0.2"/><circle cx="1344.2" cy="962.8" r="2.2" fill="#141312" fill-opacity="0.2"/><circle cx="1866.2" cy="433.6" r="3.7" fill="#141312" fill-opacity="0.2"/><circle cx="254.1" cy="539.2" r="5.1" fill="#141312" fill-opacity="0.2"/><circle cx="102.1" cy="397.6" r="5.3" fill="#141312" fill-opacity="0.2"/><circle cx="423" cy="653.8" r="3.8" fill="#141312" fill-opacity="0.2"/><circle cx="915.6" cy="177.7" r="3.3" fill="#141312" fill-opacity="0.2"/><circle cx="693.2" cy="209.2" r="2.9" fill="#141312" fill-opacity="0.3"/><circle cx="1523.8" cy="288.2" r="5" fill="#141312" fill-opacity="0.2"/><circle cx="387.7" cy="420.8" r="5.1" fill="#141312" fill-opacity="0.3"/><circle cx="517.8" cy="946" r="4.4" fill="#141312" fill-opacity="0.3"/><circle cx="1956.1" cy="86.7" r="3.5" fill="#141312" fill-opacity="0.2"/><circle cx="211.1" cy="882.8" r="4.5" fill="#141312" fill-opacity="0.2"/><circle cx="555.2" cy="813.2" r="3.8" fill="#141312" fill-opacity="0.3"/><circle cx="1092.6" cy="500.8" r="2.3" fill="#141312" fill-opacity="0.3"/><circle cx="504.6" cy="596.4" r="4" fill="#141312" fill-opacity="0.3"/><circle cx="1487.5" cy="659.5" r="2.1" fill="#141312" fill-opacity="0.2"/><circle cx="1078.1" cy="70.7" r="3.7" fill="#141312" fill-opacity="0.3"/><circle cx="482.1" cy="314.3" r="3.4" fill="#141312" fill-opacity="0.2"/><circle cx="1926.5" cy="84.7" r="2.2" fill="#141312" fill-opacity="0.3"/><circle cx="1648.5" cy="611.9" r="3.9" fill="#141312" fill-opacity="0.3"/><circle cx="1589.6" cy="676.6" r="2.2" fill="#141312" fill-opacity="0.3"/><circle cx="1772.6" cy="723.4" r="3.7" fill="#141312" fill-opacity="0.2"/><circle cx="1392" cy="946.1" r="2.2" fill="#141312" fill-opacity="0.2"/><circle cx="643" cy="816" r="5.1" fill="#141312" fill-opacity="0.3"/><circle cx="397.6" cy="852.8" r="2.7" fill="#141312" fill-opacity="0.2"/><circle cx="1210.8" cy="583.2" r="5.2" fill="#141312" fill-opacity="0.3"/><circle cx="1246.8" cy="169.2" r="4.4" fill="#141312" fill-opacity="0.2"/><circle cx="1680.4" cy="130.6" r="5.2" fill="#141312" fill-opacity="0.2"/><circle cx="827.1" cy="276.3" r="4.7" fill="#141312" fill-opacity="0.3"/><circle cx="1275.5" cy="745.9" r="3.5" fill="#141312" fill-opacity="0.3"/><circle cx="471.3" cy="940.1" r="4.6" fill="#141312" fill-opacity="0.2"/><circle cx="1491" cy="382.8" r="3.5" fill="#141312" fill-opacity="0.3"/><circle cx="512.6" cy="511.7" r="4.1" fill="#141312" fill-opacity="0.2"/><circle cx="1240.7" cy="744.8" r="3.2" fill="#141312" fill-opacity="0.2"/><circle cx="851.2" cy="372.5" r="3.1" fill="#141312" fill-opacity="0.3"/><circle cx="1929.6" cy="67.9" r="4.8" fill="#141312" fill-opacity="0.3"/><circle cx="328.9" cy="856" r="3" fill="#141312" fill-opacity="0.2"/><circle cx="1082" cy="804.3" r="2.9" fill="#141312" fill-opacity="0.3"/><circle cx="158.4" cy="245.2" r="3.1" fill="#141312" fill-opacity="0.2"/><circle cx="1368.3" cy="733.3" r="2.3" fill="#141312" fill-opacity="0.3"/><circle cx="1703.9" cy="577.8" r="4" fill="#141312" fill-opacity="0.2"/><circle cx="521.3" cy="458" r="2.7" fill="#141312" fill-opacity="0.3"/><circle cx="1050.1" cy="826.8" r="4.9" fill="#141312" fill-opacity="0.2"/><circle cx="841.6" cy="684.6" r="4.5" fill="#141312" fill-opacity="0.3"/><circle cx="1246.7" cy="939.1" r="2.5" fill="#141312" fill-opacity="0.2"/><circle cx="1976.9" cy="609" r="2.5" fill="#141312" fill-opacity="0.3"/><circle cx="1136.4" cy="720.3" r="4" fill="#141312" fill-opacity="0.3"/><circle cx="1296.4" cy="672.3" r="3.1" fill="#141312" fill-opacity="0.2"/><circle cx="32" cy="113.3" r="3.2" fill="#141312" fill-opacity="0.3"/><circle cx="728.5" cy="366.6" r="4" fill="#141312" fill-opacity="0.3"/><circle cx="660.1" cy="262" r="5.3" fill="#141312" fill-opacity="0.2"/><circle cx="1091.7" cy="750.9" r="2.2" fill="#141312" fill-opacity="0.2"/><circle cx="271.2" cy="794.2" r="4" fill="#141312" fill-opacity="0.3"/><circle cx="905.6" cy="495.3" r="5" fill="#141312" fill-opacity="0.3"/><circle cx="1729.4" cy="680.2" r="3.1" fill="#141312" fill-opacity="0.2"/><circle cx="635.2" cy="840" r="4.4" fill="#141312" fill-opacity="0.3"/><circle cx="1628.1" cy="691.9" r="4.8" fill="#141312" fill-opacity="0.2"/><circle cx="996.9" cy="705.6" r="5.4" fill="#141312" fill-opacity="0.2"/><circle cx="1030.1" cy="507.4" r="4.8" fill="#141312" fill-opacity="0.2"/><circle cx="1281.5" cy="432.6" r="4.2" fill="#141312" fill-opacity="0.3"/><circle cx="746.4" cy="887.1" r="4.2" fill="#141312" fill-opacity="0.2"/><circle cx="786.8" cy="771.5" r="5.1" fill="#141312" fill-opacity="0.3"/><circle cx="353.9" cy="898.7" r="2.2" fill="#141312" fill-opacity="0.3"/><circle cx="475.4" cy="818.1" r="3" fill="#141312" fill-opacity="0.3"/><circle cx="539.1" cy="671.3" r="4.6" fill="#141312" fill-opacity="0.2"/><circle cx="301.3" cy="297.7" r="5.2" fill="#141312" fill-opacity="0.2"/><circle cx="583.6" cy="950.8" r="2.4" fill="#141312" fill-opacity="0.3"/><circle cx="1016.6" cy="756.5" r="3.2" fill="#141312" fill-opacity="0.2"/><circle cx="579" cy="158.7" r="4.4" fill="#141312" fill-opacity="0.3"/><circle cx="1916.8" cy="758.7" r="2.4" fill="#141312" fill-opacity="0.3"/><circle cx="1457.6" cy="845.8" r="2" fill="#141312" fill-opacity="0.2"/><circle cx="605.4" cy="446.3" r="5.5" fill="#141312" fill-opacity="0.2"/><circle cx="1501.6" cy="299.1" r="4.9" fill="#141312" fill-opacity="0.2"/><circle cx="175.6" cy="36.3" r="3.2" fill="#141312" fill-opacity="0.3"/><circle cx="178.2" cy="843.3" r="3.1" fill="#141312" fill-opacity="0.2"/><circle cx="1519.7" cy="858.3" r="3.3" fill="#141312" fill-opacity="0.3"/><circle cx="1967.6" cy="393.9" r="3.3" fill="#141312" fill-opacity="0.3"/><circle cx="1215.1" cy="697.1" r="2.4" fill="#141312" fill-opacity="0.2"/><circle cx="1519.3" cy="362.3" r="4.6" fill="#141312" fill-opacity="0.3"/><circle cx="851.7" cy="818.5" r="3.4" fill="#141312" fill-opacity="0.3"/></g><path d="M0 650L210 648L236 606L380 610L430 700L560 788L690 790L730 702L860 640L1010 632L1050 560L1180 556L1222 424L1350 414L1392 304L1530 292L1574 196L1690 186L1730 96L1850 84L1892 30L2000 24" fill="none" stroke="#141312" stroke-width="9" stroke-linejoin="round"/><path d="M0 659L210 657L236 615L380 619L430 709L560 797L690 799L730 711L860 649L1010 641L1050 569L1180 565" fill="none" stroke="#fff" stroke-opacity=".55" stroke-width="5" stroke-linejoin="round"/><path d="M140.4 652L150.1 630.5L172 625.7L189.1 642.7L191.5 652Z" fill="#D9CBB3" stroke="#141312" stroke-width="4" stroke-linejoin="round"/><path d="M281.3 608L289.3 590L307.2 586L321.2 600L323.2 608Z" fill="#D9CBB3" stroke="#141312" stroke-width="4" stroke-linejoin="round"/><path d="M273 608L280.6 590.9L297.6 587.1L310.8 600.3L312.7 608Z" fill="#D9CBB3" stroke="#141312" stroke-width="4" stroke-linejoin="round"/><path d="M260.1 608L268.4 589.4L287.1 585.3L301.6 599.8L303.7 608Z" fill="#D9CBB3" stroke="#141312" stroke-width="4" stroke-linejoin="round"/><path d="M570.6 790L579.5 770.4L599.3 765.9L614.8 781.4L617 790Z" fill="#D9CBB3" stroke="#141312" stroke-width="4" stroke-linejoin="round"/><path d="M559.1 790L567.9 770.4L587.7 766L603.1 781.4L605.3 790Z" fill="#D9CBB3" stroke="#141312" stroke-width="4" stroke-linejoin="round"/><path d="M621.1 790L628.7 772.8L645.8 769L659.1 782.3L661 790Z" fill="#D9CBB3" stroke="#141312" stroke-width="4" stroke-linejoin="round"/><path d="M926.7 642L932.6 628.2L945.9 625.3L956.2 635.6L957.7 642Z" fill="#D9CBB3" stroke="#141312" stroke-width="4" stroke-linejoin="round"/><path d="M898.9 642L908.4 621L929.8 616.2L946.4 632.9L948.8 642Z" fill="#D9CBB3" stroke="#141312" stroke-width="4" stroke-linejoin="round"/><path d="M954.7 642L963.5 622.4L983.3 618L998.7 633.4L1000.8 642Z" fill="#D9CBB3" stroke="#141312" stroke-width="4" stroke-linejoin="round"/><path d="M1133 562L1141.1 543.7L1159.4 539.6L1173.7 553.9L1175.7 562Z" fill="#D9CBB3" stroke="#141312" stroke-width="4" stroke-linejoin="round"/><path d="M1089.3 562L1097.1 544.3L1114.8 540.4L1128.5 554.1L1130.4 562Z" fill="#D9CBB3" stroke="#141312" stroke-width="4" stroke-linejoin="round"/><path d="M1120.4 562L1127.2 546.4L1142.5 543L1154.5 554.9L1156.2 562Z" fill="#D9CBB3" stroke="#141312" stroke-width="4" stroke-linejoin="round"/><path d="M1241.9 426L1248.9 410.1L1264.5 406.6L1276.7 418.8L1278.4 426Z" fill="#D9CBB3" stroke="#141312" stroke-width="4" stroke-linejoin="round"/><path d="M1286.9 426L1296.8 404.4L1318.9 399.4L1336 416.6L1338.5 426Z" fill="#D9CBB3" stroke="#141312" stroke-width="4" stroke-linejoin="round"/><path d="M1434.8 306L1443.4 286.9L1462.6 282.7L1477.5 297.6L1479.7 306Z" fill="#D9CBB3" stroke="#141312" stroke-width="4" stroke-linejoin="round"/><path d="M1633.8 198L1642.3 178.8L1661.6 174.6L1676.7 189.6L1678.8 198Z" fill="#D9CBB3" stroke="#141312" stroke-width="4" stroke-linejoin="round"/><path d="M1747 98L1751.4 87.1L1761.5 84.9L1769.3 92.7L1770.4 98Z" fill="#D9CBB3" stroke="#141312" stroke-width="4" stroke-linejoin="round"/><path d="M1769.6 98L1776.3 82.6L1791.4 79.2L1803.2 91L1804.9 98Z" fill="#D9CBB3" stroke="#141312" stroke-width="4" stroke-linejoin="round"/><path d="M1747.8 98L1754.2 83.2L1768.7 79.9L1779.9 91.2L1781.5 98Z" fill="#D9CBB3" stroke="#141312" stroke-width="4" stroke-linejoin="round"/><path d="M1940.1 32L1945.8 18.8L1958.4 15.9L1968.3 25.8L1969.7 32Z" fill="#D9CBB3" stroke="#141312" stroke-width="4" stroke-linejoin="round"/><path d="M1925 32L1930.4 19.3L1942.4 16.6L1951.8 26L1953.2 32Z" fill="#D9CBB3" stroke="#141312" stroke-width="4" stroke-linejoin="round"/></svg>